<svg width="455" height="135" xmlns="http://www.w3.org/2000/svg" xmlns:xlink="http://www.w3.org/1999/xlink" xml:space="preserve" overflow="hidden"><defs><clipPath id="clip0"><rect x="1872" y="970" width="455" height="135"/></clipPath><clipPath id="clip1"><path d="M1917 1034C1917 1015.77 1931.77 1001 1950 1001 1968.23 1001 1983 1015.77 1983 1034 1983 1052.23 1968.23 1067 1950 1067 1931.77 1067 1917 1052.23 1917 1034Z" fill-rule="evenodd" clip-rule="evenodd"/></clipPath></defs><g clip-path="url(#clip0)" transform="translate(-1872 -970)"><rect x="1872" y="970" width="434" height="135" fill="#140129"/><path d="M1898 1034.5C1898 1005.51 1921.51 982 1950.5 982 1979.49 982 2003 1005.51 2003 1034.5 2003 1063.49 1979.49 1087 1950.5 1087 1921.51 1087 1898 1063.49 1898 1034.5Z" fill="#FFFFFF" fill-rule="evenodd"/><g clip-path="url(#clip1)"><g><g><path d="M1950 1039.8C1953.2 1039.8 1955.81 1037.2 1955.81 1033.99 1955.81 1032.72 1955.4 1031.55 1954.72 1030.6 1953.66 1029.14 1951.95 1028.17 1950.01 1028.17 1948.08 1028.17 1946.36 1029.13 1945.31 1030.6 1944.62 1031.55 1944.21 1032.72 1944.21 1033.99 1944.2 1037.2 1946.8 1039.8 1950 1039.8Z" fill="#140129"/><path d="M1962.68 1026.9 1962.68 1022.02 1962.68 1021.3 1961.96 1021.3 1957.09 1021.32 1957.12 1026.91Z" fill="#140129"/><path d="M1977.84 1001 1922.16 1001C1919.31 1001 1917 1003.31 1917 1006.16L1917 1061.84C1917 1064.69 1919.31 1067 1922.16 1067L1977.84 1067C1980.69 1067 1983 1064.69 1983 1061.84L1983 1006.16C1983 1003.31 1980.69 1001 1977.84 1001ZM1966.5 1030.61 1966.5 1044.12C1966.5 1047.64 1963.64 1050.5 1960.12 1050.5L1939.88 1050.5C1936.36 1050.5 1933.5 1047.64 1933.5 1044.12L1933.5 1030.61 1933.5 1023.87C1933.5 1020.35 1936.36 1017.49 1939.88 1017.49L1960.12 1017.49C1963.64 1017.49 1966.5 1020.35 1966.5 1023.87L1966.5 1030.61Z" fill="#140129"/><path d="M1959.02 1034C1959.02 1038.98 1954.98 1043.02 1950 1043.02 1945.02 1043.02 1940.98 1038.98 1940.98 1034 1940.98 1032.8 1941.22 1031.65 1941.65 1030.61L1936.72 1030.61 1936.72 1044.12C1936.72 1045.86 1938.14 1047.28 1939.88 1047.28L1960.12 1047.28C1961.86 1047.28 1963.28 1045.86 1963.28 1044.12L1963.28 1030.61 1958.35 1030.61C1958.79 1031.65 1959.02 1032.8 1959.02 1034Z" fill="#140129"/></g></g></g><text fill="#FFFFFF" font-family="Leelawadee UI,Leelawadee UI_MSFontService,sans-serif" font-weight="700" font-size="46" transform="matrix(1 0 0 1 2016.49 1052)">INSTAGRAM</text></g></svg>