<svg width="430" height="135" xmlns="http://www.w3.org/2000/svg" xmlns:xlink="http://www.w3.org/1999/xlink" xml:space="preserve" overflow="hidden"><defs><clipPath id="clip0"><path d="M1427 1421C1427 1402.77 1441.77 1388 1460 1388 1478.23 1388 1493 1402.77 1493 1421 1493 1439.23 1478.23 1454 1460 1454 1441.77 1454 1427 1439.23 1427 1421Z" fill-rule="evenodd" clip-rule="evenodd"/></clipPath></defs><g transform="translate(-1379 -1357)"><rect x="1379" y="1357" width="400" height="135" fill="#140129"/><path d="M1405 1421C1405 1391.73 1428.51 1368 1457.5 1368 1486.49 1368 1510 1391.73 1510 1421 1510 1450.27 1486.49 1474 1457.5 1474 1428.51 1474 1405 1450.27 1405 1421Z" fill="#FFFFFF" fill-rule="evenodd"/><g clip-path="url(#clip0)"><g><g><path d="M1487.84 1388 1432.16 1388C1429.31 1388 1427 1390.31 1427 1393.16L1427 1448.84C1427 1451.69 1429.31 1454 1432.16 1454L1487.84 1454C1490.69 1454 1493 1451.69 1493 1448.84L1493 1393.16C1493 1390.31 1490.69 1388 1487.84 1388ZM1460 1437.41C1458.38 1437.41 1456.8 1437.16 1455.32 1436.73 1455.95 1435.73 1456.64 1434.46 1456.98 1433.19 1457.19 1432.46 1458.14 1428.66 1458.14 1428.66 1458.71 1429.75 1460.39 1430.71 1462.18 1430.71 1467.49 1430.71 1471.09 1425.87 1471.09 1419.4 1471.09 1414.5 1466.94 1409.95 1460.64 1409.95 1452.81 1409.95 1448.85 1415.57 1448.85 1420.27 1448.85 1423.1 1449.92 1425.63 1452.23 1426.57 1452.6 1426.72 1452.94 1426.57 1453.05 1426.16 1453.13 1425.87 1453.31 1425.14 1453.39 1424.83 1453.5 1424.42 1453.45 1424.27 1453.15 1423.91 1452.5 1423.13 1452.07 1422.12 1452.07 1420.68 1452.07 1416.51 1455.19 1412.78 1460.19 1412.78 1464.63 1412.78 1467.06 1415.48 1467.06 1419.09 1467.06 1423.85 1464.96 1427.86 1461.83 1427.86 1460.1 1427.86 1458.81 1426.43 1459.23 1424.69 1459.72 1422.6 1460.68 1420.34 1460.68 1418.83 1460.68 1417.48 1459.96 1416.36 1458.45 1416.36 1456.69 1416.36 1455.27 1418.19 1455.27 1420.63 1455.27 1422.19 1455.8 1423.23 1455.8 1423.23 1455.8 1423.23 1453.99 1430.89 1453.67 1432.21 1453.37 1433.47 1453.34 1434.86 1453.39 1436 1447.56 1433.48 1443.5 1427.66 1443.5 1420.91 1443.5 1411.8 1450.89 1404.41 1460 1404.41 1469.11 1404.41 1476.5 1411.8 1476.5 1420.91 1476.5 1430.02 1469.11 1437.41 1460 1437.41Z" fill="#140129"/></g></g></g><text fill="#FFFFFF" font-family="Leelawadee UI,Leelawadee UI_MSFontService,sans-serif" font-weight="700" font-size="46" transform="matrix(1 0 0 1 1526.44 1438)">PINTEREST</text></g></svg>