<svg width="400" height="136" xmlns="http://www.w3.org/2000/svg" xmlns:xlink="http://www.w3.org/1999/xlink" xml:space="preserve" overflow="hidden"><defs><clipPath id="clip0"><path d="M1427 1223C1427 1204.77 1441.77 1190 1460 1190 1478.23 1190 1493 1204.77 1493 1223 1493 1241.23 1478.23 1256 1460 1256 1441.77 1256 1427 1241.23 1427 1223Z" fill-rule="evenodd" clip-rule="evenodd"/></clipPath></defs><g transform="translate(-1379 -1158)"><rect x="1379" y="1158" width="400" height="136" fill="#140129"/><path d="M1405 1223C1405 1193.73 1428.51 1170 1457.5 1170 1486.49 1170 1510 1193.73 1510 1223 1510 1252.27 1486.49 1276 1457.5 1276 1428.51 1276 1405 1252.27 1405 1223Z" fill="#FFFFFF" fill-rule="evenodd"/><g clip-path="url(#clip0)"><g><g><path d="M1487.84 1190 1432.16 1190C1429.31 1190 1427 1192.31 1427 1195.16L1427 1250.84C1427 1253.69 1429.31 1256 1432.16 1256L1487.84 1256C1490.69 1256 1493 1253.69 1493 1250.84L1493 1195.16C1493 1192.31 1490.69 1190 1487.84 1190ZM1473.17 1217.87C1473.19 1218.15 1473.19 1218.45 1473.19 1218.75 1473.19 1227.71 1466.37 1238.04 1453.89 1238.04 1450.06 1238.04 1446.49 1236.92 1443.5 1235 1444.03 1235.07 1444.57 1235.09 1445.12 1235.09 1448.3 1235.09 1451.22 1234.01 1453.54 1232.19 1450.58 1232.14 1448.06 1230.18 1447.21 1227.49 1447.62 1227.56 1448.05 1227.6 1448.49 1227.6 1449.11 1227.6 1449.71 1227.52 1450.28 1227.36 1447.17 1226.74 1444.84 1223.99 1444.84 1220.71L1444.84 1220.63C1445.76 1221.13 1446.8 1221.44 1447.91 1221.48 1446.09 1220.27 1444.89 1218.18 1444.89 1215.83 1444.89 1214.6 1445.23 1213.42 1445.81 1212.42 1449.16 1216.53 1454.15 1219.22 1459.78 1219.51 1459.66 1219.02 1459.6 1218.5 1459.6 1217.96 1459.6 1214.22 1462.64 1211.18 1466.38 1211.18 1468.33 1211.18 1470.09 1212 1471.33 1213.32 1472.88 1213.01 1474.32 1212.46 1475.64 1211.67 1475.13 1213.25 1474.05 1214.58 1472.66 1215.42 1474.02 1215.25 1475.34 1214.89 1476.55 1214.35 1475.65 1215.72 1474.5 1216.9 1473.17 1217.87Z" fill="#140129"/></g></g></g><text fill="#FFFFFF" font-family="Leelawadee UI,Leelawadee UI_MSFontService,sans-serif" font-weight="700" font-size="46" transform="matrix(1 0 0 1 1524.72 1240)">TWITTER</text></g></svg>