<svg width="434" height="135" xmlns="http://www.w3.org/2000/svg" xmlns:xlink="http://www.w3.org/1999/xlink" xml:space="preserve" overflow="hidden"><defs><clipPath id="clip0"><rect x="1872" y="1162" width="434" height="135"/></clipPath><clipPath id="clip1"><path d="M1917 1228C1917 1209.77 1931.77 1195 1950 1195 1968.23 1195 1983 1209.77 1983 1228 1983 1246.23 1968.23 1261 1950 1261 1931.77 1261 1917 1246.23 1917 1228Z" fill-rule="evenodd" clip-rule="evenodd"/></clipPath></defs><g clip-path="url(#clip0)" transform="translate(-1872 -1162)"><rect x="1872" y="1162" width="434" height="135" fill="#140129"/><path d="M1896 1229.5C1896 1200.51 1919.51 1177 1948.5 1177 1977.49 1177 2001 1200.51 2001 1229.5 2001 1258.49 1977.49 1282 1948.5 1282 1919.51 1282 1896 1258.49 1896 1229.5Z" fill="#FFFFFF" fill-rule="evenodd"/><g clip-path="url(#clip1)"><g><g><path d="M1977.5 1213.01C1977.47 1211.83 1977.38 1210.64 1977.23 1209.46 1977.02 1208.43 1976.68 1207.44 1976.21 1206.49 1975.72 1205.47 1975.06 1204.55 1974.26 1203.74 1973.45 1202.95 1972.52 1202.29 1971.51 1201.79 1970.56 1201.33 1969.56 1201 1968.54 1200.8 1967.37 1200.63 1966.19 1200.53 1965.02 1200.5L1935.01 1200.5C1933.83 1200.53 1932.64 1200.62 1931.47 1200.77 1930.43 1200.98 1929.44 1201.32 1928.5 1201.79 1927.48 1202.28 1926.55 1202.94 1925.75 1203.74 1924.95 1204.55 1924.29 1205.48 1923.79 1206.49 1923.33 1207.44 1923 1208.44 1922.8 1209.46 1922.63 1210.63 1922.53 1211.81 1922.5 1212.98 1922.5 1213.51 1922.5 1214.25 1922.5 1214.47L1922.5 1241.53C1922.5 1241.83 1922.5 1242.49 1922.5 1242.99 1922.53 1244.17 1922.62 1245.36 1922.78 1246.53 1922.98 1247.57 1923.32 1248.56 1923.79 1249.5 1924.28 1250.52 1924.94 1251.45 1925.75 1252.25 1926.55 1253.05 1927.48 1253.71 1928.5 1254.21 1929.44 1254.67 1930.44 1255 1931.47 1255.2 1932.63 1255.37 1933.81 1255.47 1934.99 1255.5L1964.99 1255.5C1966.17 1255.47 1967.36 1255.38 1968.54 1255.22 1969.57 1255.02 1970.56 1254.68 1971.51 1254.21 1972.53 1253.72 1973.45 1253.06 1974.26 1252.25 1975.05 1251.45 1975.71 1250.52 1976.21 1249.5 1976.67 1248.56 1977 1247.56 1977.2 1246.53 1977.37 1245.37 1977.47 1244.19 1977.5 1243.01 1977.5 1242.49 1977.5 1241.83 1977.5 1241.53L1977.5 1214.47C1977.5 1214.25 1977.5 1213.51 1977.5 1213.01ZM1950.63 1247.25 1950.63 1247.25C1947.33 1247.23 1944.09 1246.38 1941.2 1244.77L1930.75 1247.52 1933.5 1237.29C1931.73 1234.32 1930.78 1230.92 1930.75 1227.45 1930.78 1216.55 1939.65 1207.73 1950.55 1207.76 1961.46 1207.79 1970.27 1216.66 1970.24 1227.56 1970.21 1238.39 1961.46 1247.17 1950.63 1247.25ZM1950.63 1211.14C1941.52 1211.25 1934.22 1218.72 1934.32 1227.83 1934.36 1230.8 1935.19 1233.71 1936.75 1236.25L1937.13 1236.88 1935.48 1242.9 1941.75 1241.2 1942.36 1241.56C1944.86 1243.03 1947.7 1243.82 1950.61 1243.84L1950.61 1243.84C1959.72 1243.84 1967.11 1236.45 1967.11 1227.34 1967.11 1218.23 1959.72 1210.84 1950.61 1210.84ZM1960.26 1234.57C1959.53 1235.79 1958.32 1236.64 1956.93 1236.91 1955.9 1237.1 1954.85 1237.03 1953.85 1236.72 1952.91 1236.42 1951.99 1236.08 1951.1 1235.67 1947.7 1233.97 1944.8 1231.41 1942.69 1228.25 1941.54 1226.78 1940.84 1225.02 1940.68 1223.16 1940.64 1221.6 1941.27 1220.1 1942.41 1219.03 1942.74 1218.66 1943.22 1218.44 1943.73 1218.43L1944.5 1218.43C1944.8 1218.43 1945.22 1218.43 1945.6 1219.28 1945.99 1220.13 1947 1222.69 1947.14 1222.94 1947.28 1223.21 1947.28 1223.52 1947.14 1223.79 1947.02 1224.09 1946.85 1224.37 1946.65 1224.62 1946.4 1224.92 1946.12 1225.28 1945.9 1225.5 1945.68 1225.72 1945.41 1225.99 1945.68 1226.49 1946.43 1227.75 1947.36 1228.9 1948.43 1229.9 1949.6 1230.93 1950.94 1231.76 1952.39 1232.34 1952.89 1232.59 1953.19 1232.56 1953.47 1232.34 1953.74 1232.12 1954.7 1230.91 1955.03 1230.42 1955.36 1229.92 1955.69 1230.01 1956.13 1230.17 1956.57 1230.34 1959.02 1231.52 1959.52 1231.77 1960.01 1232.01 1960.31 1232.12 1960.45 1232.34 1960.57 1233.06 1960.5 1233.8 1960.26 1234.49Z" fill="#140129"/></g></g></g><text fill="#FFFFFF" font-family="Leelawadee UI,Leelawadee UI_MSFontService,sans-serif" font-weight="700" font-size="46" transform="matrix(1 0 0 1 2016.49 1246)">WHATSAPP</text></g></svg>